<svg width="1142" height="456" viewBox="0 0 1142 456" fill="none" xmlns="http://www.w3.org/2000/svg">
<path fill-rule="evenodd" clip-rule="evenodd" d="M570.54 14.4846C511.871 125.189 417.098 192.439 402.431 275.208C388.892 349.701 453.202 455.232 586.336 455.232C719.47 455.232 783.78 349.701 770.241 275.208C755.574 192.439 660.801 125.189 602.131 14.4846C597.619 5.17309 591.977 0 586.336 0C580.695 0 575.053 5.17309 570.54 14.4846ZM725.111 322.801C719.47 345.562 707.059 366.255 690.135 381.774C673.212 398.328 651.775 410.743 626.953 416.951C619.055 419.02 611.157 417.986 604.388 412.812C596.49 407.639 594.234 401.432 594.234 392.12C593.106 380.739 601.003 371.428 613.414 368.324C626.953 364.185 640.492 356.943 650.646 347.632C660.801 337.285 668.699 324.87 672.083 311.42C675.468 299.005 686.75 292.797 700.29 292.797C708.187 292.797 714.957 295.901 720.598 302.108C725.111 308.316 727.367 315.558 725.111 322.801Z" fill="#FF2B4D"/>
<path d="M145.524 455.231H40.479L41.1481 388.923H145.524C173.848 388.923 197.601 383.194 216.781 371.733C235.96 360.068 250.458 343.388 260.27 321.695C270.084 299.797 274.99 273.602 274.99 243.108V220.084C274.99 196.55 272.202 175.777 266.626 157.768C261.051 139.758 252.799 124.613 241.87 112.334C231.165 100.055 217.896 90.7439 202.061 84.3997C186.226 78.0546 168.05 74.883 147.531 74.883H38.4718V8.26855H147.531C180.093 8.26855 209.756 13.2823 236.518 23.3106C263.504 33.338 286.81 47.7663 306.437 66.5946C326.286 85.2177 341.452 107.525 351.934 133.516C362.639 159.507 367.992 188.568 367.992 220.699V243.108C367.992 275.034 362.639 304.094 351.934 330.29C341.452 356.281 326.286 378.589 306.437 397.212C286.81 415.836 263.393 430.161 236.184 440.189C208.974 450.218 178.755 455.231 145.524 455.231ZM91.9979 8.26855V455.231H0V8.26855H91.9979Z" fill="black"/>
<path d="M1141.34 388.923V455.231H882.411V388.923H1141.34ZM910.512 8.26855V455.231H818.514V8.26855H910.512ZM1107.56 192.763V257.536H882.411V192.763H1107.56ZM1140.33 8.26855V74.883H882.411V8.26855H1140.33Z" fill="black"/>
</svg>
